<svg xmlns="http://www.w3.org/2000/svg" xmlns:xlink="http://www.w3.org/1999/xlink" width="1378" height="706" viewBox="0 0 1378 706">
  <defs>
    <linearGradient id="a" x1="54.0538982%" x2="54.0538982%" y1="11.9681706%" y2="100%">
      <stop offset="0%" stop-color="#00024F"/>
      <stop offset="40.7031922%" stop-color="#3335F6"/>
      <stop offset="78.4261684%" stop-color="#A073FB"/>
      <stop offset="100%" stop-color="#FF5748"/>
    </linearGradient>
    <linearGradient id="b" x1="50%" x2="50%" y1="0%" y2="94.3955819%">
      <stop offset="0%" stop-color="#BD80DC"/>
      <stop offset="100%" stop-color="#6B60F9"/>
    </linearGradient>
    <linearGradient id="c" x1="50%" x2="50%" y1="100%" y2="0%">
      <stop offset="0%" stop-color="#BD80DC"/>
      <stop offset="100%" stop-color="#6F63F9"/>
    </linearGradient>
    <linearGradient id="d" x1="50%" x2="50%" y1="100%" y2="0%">
      <stop offset="0%" stop-color="#AAF2FF"/>
      <stop offset="100%" stop-color="#3F47FF"/>
    </linearGradient>
    <linearGradient id="e" x1="50%" x2="41.7908866%" y1="75.1087012%" y2="6.1642879%">
      <stop offset="0%" stop-color="#6218EF"/>
      <stop offset="100%" stop-color="#D083FB"/>
    </linearGradient>
    <linearGradient id="f" x1="67.1039782%" x2="42.2491776%" y1="35.2169296%" y2="100%">
      <stop offset="0%" stop-color="#FB2EAA"/>
      <stop offset="100%" stop-color="#BA75EB"/>
    </linearGradient>
    <linearGradient id="g" x1="41.4798056%" x2="50%" y1="3.55166771%" y2="100%">
      <stop offset="0%" stop-color="#FF5173"/>
      <stop offset="100%" stop-color="#FFE8CC"/>
    </linearGradient>
    <linearGradient id="h" x1="66.4047125%" x2="42.8620173%" y1="37.0395386%" y2="98.4026573%">
      <stop offset="0%" stop-color="#FF6EC6"/>
      <stop offset="100%" stop-color="#F9F1FF"/>
    </linearGradient>
    <linearGradient id="i" x1="41.4798056%" x2="49.7853022%" y1="3.55166771%" y2="97.5696275%">
      <stop offset="0%" stop-color="#AF0AF8"/>
      <stop offset="100%" stop-color="#FBB49A"/>
    </linearGradient>
    <linearGradient id="j" x1="50%" x2="98.3416667%" y1="50%" y2="97.4116747%">
      <stop offset="0%" stop-color="#FFF917"/>
      <stop offset="100%" stop-color="#FFF"/>
    </linearGradient>
    <linearGradient id="k" x1="50%" x2="98.3416667%" y1="50%" y2="97.4116747%">
      <stop offset="0%" stop-color="#FF00C5"/>
      <stop offset="100%" stop-color="#FFF"/>
    </linearGradient>
    <linearGradient id="l" x1="50%" x2="98.3416667%" y1="50%" y2="97.4116747%">
      <stop offset="0%" stop-color="#AC00FF"/>
      <stop offset="100%" stop-color="#FFF"/>
    </linearGradient>
    <linearGradient id="m" x1="50%" x2="98.3416667%" y1="50%" y2="97.4116747%">
      <stop offset="0%" stop-color="#2184FF"/>
      <stop offset="100%" stop-color="#FFF"/>
    </linearGradient>
    <linearGradient id="n" x1="50%" x2="50%" y1="0%" y2="100%">
      <stop offset="0%" stop-color="#3C3EBE"/>
      <stop offset="100%" stop-color="#EEA8F5"/>
    </linearGradient>
    <linearGradient id="o" x1="100%" x2="0%" y1="50%" y2="50%">
      <stop offset="0%" stop-color="#3C3EBE"/>
      <stop offset="100%" stop-color="#EEA8F5"/>
    </linearGradient>
    <linearGradient id="p" x1="50%" x2="50%" y1="1.2802565%" y2="100%">
      <stop offset="0%" stop-color="#FF9C9C"/>
      <stop offset="100%" stop-color="#FF00DF"/>
    </linearGradient>
    <linearGradient id="q" x1="50%" x2="50%" y1="1.2802565%" y2="100%">
      <stop offset="0%" stop-color="#4DFFD1"/>
      <stop offset="100%" stop-color="#80AFFF"/>
    </linearGradient>
    <linearGradient id="r" x1="50%" x2="50%" y1="100%" y2="1.2802565%">
      <stop offset="0%" stop-color="#9E29F7"/>
      <stop offset="100%" stop-color="#FF00DF"/>
    </linearGradient>
    <linearGradient id="s" x1="50%" x2="50%" y1="1.2802565%" y2="100%">
      <stop offset="0%" stop-color="#34F6E9"/>
      <stop offset="100%" stop-color="#FFE0FB"/>
    </linearGradient>
    <linearGradient id="t" x1="50%" x2="50%" y1="0%" y2="100%">
      <stop offset="0%" stop-color="#D743AE"/>
      <stop offset="100%" stop-color="#FD9793"/>
    </linearGradient>
    <linearGradient id="u" x1="50%" x2="50%" y1="1.2802565%" y2="98.0384444%">
      <stop offset="0%" stop-color="#00EAFF"/>
      <stop offset="100%" stop-color="#E1A6D9"/>
    </linearGradient>
    <linearGradient id="v" x1="50%" x2="50%" y1="1.2802565%" y2="98.0384444%">
      <stop offset="0%" stop-color="#0BC"/>
      <stop offset="100%" stop-color="#E1A6D9"/>
    </linearGradient>
    <linearGradient id="w" x1="50%" x2="50%" y1="0%" y2="100%">
      <stop offset="0%" stop-color="#B57DDF"/>
      <stop offset="100%" stop-color="#FD9793"/>
    </linearGradient>
    <linearGradient id="x" x1="50%" x2="50%" y1="0%" y2="100%">
      <stop offset="0%" stop-color="#E766A2"/>
      <stop offset="100%" stop-color="#FD9793"/>
    </linearGradient>
    <linearGradient id="y" x1="0%" x2="100%" y1="50%" y2="50%">
      <stop offset="0%" stop-color="#AAF2FF"/>
      <stop offset="100%" stop-color="#3F47FF"/>
    </linearGradient>
    <linearGradient id="z" x1="0%" x2="97.2114342%" y1="50%" y2="50%">
      <stop offset="0%" stop-color="#AAF2FF"/>
      <stop offset="100%" stop-color="#1CFFFC"/>
    </linearGradient>
    <linearGradient id="A" x1="50%" x2="50%" y1="0%" y2="100%">
      <stop offset="0%" stop-color="#B57DDF"/>
      <stop offset="100%" stop-color="#FF47DD"/>
    </linearGradient>
    <linearGradient id="B" x1="50%" x2="50%" y1="0%" y2="100%">
      <stop offset="0%" stop-color="#5C31C4"/>
      <stop offset="100%" stop-color="#FF00CF"/>
    </linearGradient>
    <linearGradient id="C" x1="0%" x2="64.3150593%" y1="50%" y2="50%">
      <stop offset="0%" stop-color="#5A127C"/>
      <stop offset="100%" stop-color="#E60084"/>
    </linearGradient>
    <linearGradient id="D" x1="0%" x2="100%" y1="50%" y2="50%">
      <stop offset="0%" stop-color="#6E00FF"/>
      <stop offset="100%" stop-color="#2B2F99"/>
    </linearGradient>
    <linearGradient id="E" x1="0%" x2="97.2114342%" y1="50%" y2="50%">
      <stop offset="0%" stop-color="#FFF"/>
      <stop offset="100%" stop-color="#1CFFFC"/>
    </linearGradient>
    <linearGradient id="G" x1="50%" x2="50%" y1="100%" y2="13.6506356%">
      <stop offset="0%" stop-color="#FFC51F"/>
      <stop offset="100%" stop-color="#FFE87F"/>
    </linearGradient>
    <linearGradient id="I" x1="0%" x2="98.1371929%" y1="50%" y2="50%">
      <stop offset="0%" stop-color="#FF25B2"/>
      <stop offset="100%" stop-color="#FF6C6C"/>
    </linearGradient>
    <linearGradient id="J" x1="50%" x2="50%" y1="100%" y2="1.40218569%">
      <stop offset="0%" stop-color="#4C4EF3"/>
      <stop offset="100%" stop-color="#FFF"/>
    </linearGradient>
    <linearGradient id="K" x1="27.5860822%" x2="62.6909675%" y1="82.9772214%" y2="13.060743%">
      <stop offset="0%" stop-color="#1700FF"/>
      <stop offset="100%" stop-color="#AB0AD0"/>
    </linearGradient>
    <radialGradient id="H" cx="64.9020901%" cy="34.3090503%" r="68.2292091%" fx="64.9020901%" fy="34.3090503%" gradientTransform="scale(-.98374 -1) rotate(-36.279 -1.05261044 1.99743585)">
      <stop offset="0%" stop-color="#FF8D72"/>
      <stop offset="62.6404873%" stop-color="#FF5234"/>
      <stop offset="72.3804195%" stop-color="#FF5747"/>
      <stop offset="85.6529986%" stop-color="#FF0057"/>
      <stop offset="100%" stop-color="#E40040"/>
    </radialGradient>
    <path id="F" d="M1093 706s-81.6518-68-223-68c-141.348197 0-223 68-223 68h446z"/>
  </defs>
  <g fill="none" fill-rule="evenodd">
    <path fill="#FFF" d="M0 0h1378v706H0z"/>
    <g transform="translate(-181)">
      <path fill="url(#a)" d="M181 0h1380v706H181z"/>
      <path fill="url(#b)" d="M1210 411h349.60938c-.80352 0 0-82.954104-.80352-82.954104-7.39291-19.389116-22.35471-32.404138-44.8854-39.045067-53.26005-16.520721-92.57104 21.60402-92.57104 50.832988 0 0-24.09383-31.770617-69.74531-12.284639-20.00774 9.884192-30.01162 27.110927-30.01162 51.680205-9.86297-4.236083-19.86684-3.388866-30.01161 2.541649-10.14478 5.930515-15.07626 12.425841-14.79446 19.485979C1245.5067 396.456117 1223.24456 399.70378 1210 411z"/>
      <path fill="url(#c)" d="M149 389h309c-1.288651-7.351508-5.338695-11.9462-12.150134-13.784077-6.811439-1.837877-11.781948-.918939-14.911528 2.756815-1.84093-5.697419-6.25916-9.465066-13.254692-11.302943-10.493297-2.756816-15.463807 1.654089-15.463807 1.654089-5.338695-7.902871-12.610366-11.854307-21.815013-11.854307 0-24.811339-10.95353-40.433293-32.86059-46.865863-34.793566-10.75158-60.474531 14.059759-60.474531 33.081786 0 0-15.739946-20.676116-45.563003-7.994765-13.070598 6.43257-19.605898 17.643619-19.605898 33.633149-6.443253-2.756816-12.978552-2.205452-19.605898 1.654089-6.627346 3.859542-9.848972 8.086659-9.664879 12.681351C172.19571 379.534934 157.652368 381.648492 149 389z" transform="matrix(-1 0 0 1 607 0)"/>
      <path fill="url(#b)" d="M947 168.699095h216c-.9008-5.158527-3.7319-8.382607-8.4933-9.672239-4.76139-1.289631-8.23592-.644816-10.42359 1.934448-1.28686-3.997859-4.37534-6.641604-9.26542-7.931236-7.33512-1.934447-10.80965 1.160669-10.80965 1.160669-3.7319-5.545417-8.81501-8.318125-15.24933-8.318125 0-17.41003-7.65683-28.3719-22.97051-32.885612-24.32171-7.544346-42.27345 9.865684-42.27345 23.213373 0 0-11.00269-14.508358-31.84987-5.609898-9.13673 4.513711-13.705094 12.380465-13.705094 23.600262-4.504022-1.934448-9.072387-1.547558-13.705094 1.160669-4.632708 2.708226-6.884719 5.67438-6.756032 8.898459-14.284183-2.192374-24.450403-.709297-30.49866 4.44923z" transform="matrix(-1 0 0 1 2110 0)"/>
      <path fill="url(#d)" d="M1395.86188 204.72277c-12.13628 1.64377-21.4903 12.028836-21.4903 24.594855 0 13.708536 11.1323 24.8215 24.8647 24.8215 9.02327 0 16.92394-4.798057 21.28147-11.977821C1417.64074 256.886401 1404.64834 268 1389.0557 268 1371.35182 268 1357 253.673112 1357 236s14.35182-32 32.0557-32c2.33548 0 4.61262.249326 6.80618.72277z" transform="matrix(-1 0 0 1 2777 0)"/>
      <path fill="url(#e)" d="M513.5 662.5c-176-79.5-222-195.560052-266.653633-195.560052-37.947227 0-120.216379 65.186684-246.8074565 195.560052H513.5z"/>
      <path fill="url(#f)" d="M471.577821 533.5c-95.833333 51.881338-162.581064 85.846818-200.243191 101.89644-37.662127 16.049623-84.27367 19.035599-139.83463 8.957929V706.5h330.009728l10.068093-173z"/>
      <path fill="url(#g)" d="M706.5 706.5c-193.227292-63.643739-175.072957-172.440129-234.36284-172.440129-23.865111 0-76.442932 57.480043-157.733464 172.440129H706.5z"/>
      <path fill="url(#h)" d="M466.816148 647.718164c43.66091 23.636728 74.070649 39.111133 91.229217 46.423214 17.158567 7.312081 38.394419 11.391708 63.707553 12.238881H471.403092l-4.586944-58.662095z"/>
      <path fill="url(#i)" d="M344.701471 705.940129c97.503782-26.754347 79.514148-62.705501 112.046583-62.705501 13.094817 0 32.544846 20.901834 58.350086 62.705501H344.701471z"/>
      <path fill="url(#j)" d="M680.544761 611.897293c.325479.199444.542626.55842.542626.968114 0 .626618-.507975 1.134593-1.134594 1.134593-.300255 0-.573269-.116632-.77621-.307062l-.029205.038331L506.5 490l174.048431 121.892475-.00367.004818z"/>
      <path fill="url(#k)" d="M1304.27877 237.754087c.26199.160545.43679.449508.43679.779296 0 .504405-.4089.913306-.91331.913306-.24169 0-.46146-.093885-.62482-.247174l-.02351.030855L1200 167l104.28172 70.750209-.00295.003878z"/>
      <circle cx="561.802254" cy="696.533383" r="1" fill="url(#l)"/>
      <path fill="url(#l)" d="M362.278766 337.754087c.261999.160545.436794.449508.436794.779296 0 .504405-.408901.913306-.913306.913306-.241694 0-.461461-.093885-.624821-.247174l-.023509.030855L258 267l104.281721 70.750209-.002955.003878z"/>
      <path fill="url(#m)" d="M728.008373 183.754087c.261999.160545.436794.449508.436794.779296 0 .504405-.408901.913306-.913306.913306-.241695 0-.461461-.093885-.624821-.247174l-.023509.030855L623.729607 113l104.28172 70.750209-.002954.003878z"/>
      <circle cx="1182" cy="109" r="2" fill="#FCFFD0"/>
      <circle cx="237.5" cy="267.5" r="1.5" fill="#FCFFD0"/>
      <circle cx="1516.5" cy="257.5" r="1.5" fill="#FCFFD0"/>
      <circle cx="577" cy="492" r="1" fill="#FFF"/>
      <circle cx="349" cy="189" r="2" fill="#FCFFD0"/>
      <circle cx="1316" cy="293" r="1" fill="#FCFFD0"/>
      <circle cx="468" cy="317" r="1" fill="#FCFFD0"/>
      <circle cx="958" cy="77" r="1" fill="#FCFFD0"/>
      <circle cx="728" cy="605" r="1" fill="#FCFFD0"/>
      <circle cx="1138" cy="554" r="1" fill="#FCFFD0"/>
      <circle cx="1414.5" cy="151.5" r="2.5" fill="#FCFFD0"/>
      <circle cx="628" cy="188" r="2" fill="#FCFFD0"/>
      <path fill="url(#n)" d="M0 138h116v132H0z" transform="translate(1096 436)"/>
      <path fill="url(#o)" d="M0 138h116v8H0zM0 151h116v8H0zM0 165h116v8H0zM0 178h116v8H0zM0 191h116v8H0zM0 204h116v8H0zM0 218h116v8H0zM0 231h116v8H0zM0 244h116v8H0zM0 257h116v8H0z" transform="translate(1096 436)"/>
      <path fill="url(#o)" style="mix-blend-mode:multiply" d="M0 138h44v132H0z" transform="translate(1096 436)"/>
      <path fill="url(#p)" d="M243 55h101v215H243z" transform="translate(1096 436)"/>
      <path fill="url(#q)" style="mix-blend-mode:overlay" d="M271 55h5v215h-5zM279 55h5v215h-5zM287 55h5v215h-5zM295 55h5v215h-5zM303 55h5v215h-5zM311 55h5v215h-5zM319 55h5v215h-5z" transform="translate(1096 436)"/>
      <path fill="url(#r)" style="mix-blend-mode:multiply" d="M333 55h29v215h-29z" transform="translate(1096 436)"/>
      <path fill="url(#p)" d="M302 105h116v160H302z" transform="translate(1096 436)"/>
      <path fill="url(#s)" d="M336 116h84v19h-84zM336 146h84v19h-84z" transform="translate(1096 436)"/>
      <path fill="#2B2F99" d="M1237 474h116v232h-116z"/>
      <path fill="url(#r)" style="mix-blend-mode:multiply" d="M301 105h29v165h-29z" transform="translate(1096 436)"/>
      <path fill="url(#t)" d="M138 0h119v270H138z" transform="translate(1096 436)"/>
      <path fill="url(#t)" style="mix-blend-mode:multiply" d="M249 0h8v270h-8z" transform="translate(1096 436)"/>
      <path fill="url(#u)" d="M301 116h23v19h-23z" transform="translate(1096 436)"/>
      <path fill="url(#v)" d="M301 146h23v19h-23zM301 177h23v19h-23zM301 207h23v19h-23zM301 238h23v19h-23z" transform="translate(1096 436)"/>
      <path fill="url(#w)" style="mix-blend-mode:multiply" d="M141 0h17v270h-17zM191 0h17v270h-17z" transform="translate(1096 436)"/>
      <path fill="url(#x)" d="M108 97h101v173H108z" transform="translate(1096 436)"/>
      <path fill="url(#y)" d="M128 97h34v8h-34zM128 108h34v8h-34zM128 119h34v8h-34zM128 130h34v8h-34zM128 141h34v8h-34zM128 152h34v8h-34zM128 163h34v8h-34zM128 174h34v8h-34zM128 185h34v8h-34zM128 196h34v8h-34zM128 207h34v8h-34zM128 218h34v8h-34zM158 3h34v8h-34zM158 14h34v8h-34zM158 25h34v8h-34z" transform="translate(1096 436)"/>
      <path fill="url(#z)" d="M173 25h12v8h-12z" opacity=".65758929" transform="translate(1096 436)"/>
      <path fill="url(#y)" d="M158 36h34v8h-34zM158 47h34v8h-34zM158 58h34v8h-34zM158 69h34v8h-34zM158 80h34v8h-34zM158 91h34v6h-34zM128 229h34v8h-34zM128 240h34v8h-34zM128 251h34v8h-34zM128 262h34v8h-34z" transform="translate(1096 436)"/>
      <path fill="url(#A)" style="mix-blend-mode:multiply" d="M111 97h17v173h-17zM162 97h17v173h-17z" transform="translate(1096 436)"/>
      <path fill="url(#B)" style="mix-blend-mode:multiply" d="M179 97h8v173h-8z" transform="translate(1096 436)"/>
      <path fill="url(#C)" d="M187 97h29v8h-29z" transform="translate(1096 436)"/>
      <path fill="url(#B)" style="mix-blend-mode:multiply" d="M208 0h8v97h-8z" transform="translate(1096 436)"/>
      <path fill="url(#D)" d="M330 165h186v105H330z" transform="translate(1096 436)"/>
      <path fill="url(#D)" style="mix-blend-mode:multiply" d="M330 165h26v105h-26z" transform="translate(1096 436)"/>
      <path fill="url(#y)" d="M356 202h131v8H356zM356 222h131v8H356zM356 242h131v8H356z" transform="translate(1096 436)"/>
      <path fill="url(#E)" d="M358 182h51v8h-51zM418 202h30v8h-30zM358 202h22v8h-22zM398 222h52v8h-52z" opacity=".65758929" transform="translate(1096 436)"/>
      <path fill="url(#z)" d="M181 47h7v8h-7z" opacity=".65758929" transform="translate(1096 436)"/>
      <path fill="url(#E)" d="M162 58h7v8h-7zM180 80h7v8h-7z" opacity=".65758929" transform="translate(1096 436)"/>
      <path fill="url(#z)" d="M143 174h12v8h-12zM151 196h7v8h-7z" opacity=".65758929" transform="translate(1096 436)"/>
      <path fill="url(#E)" d="M132 207h7v8h-7zM137 119h12v8h-12zM150 229h7v8h-7zM128 141h9v8h-9z" opacity=".65758929" transform="translate(1096 436)"/>
      <path fill="url(#y)" d="M356 182h131v8H356z" transform="translate(1096 436)"/>
      <circle cx="763" cy="135" r="1" fill="#FCFFD0"/>
      <circle cx="1286" cy="116" r="1" fill="#FCFFD0"/>
      <use fill="url(#G)" xlink:href="#F"/>
      <g>
        <g transform="translate(406 114)">
          <ellipse cx="62.5" cy="60.5" fill="url(#H)" rx="61.5" ry="60.5"/>
          <path fill="url(#I)" d="M8.32168309 5.9922873c-.59581928 0-1.1926806.02147879-1.7871407-.00725081-.42569524-.02056674-.84808313-.10885324-1.27210204-.1658564-.08947936-.01203907-.17991015-.01723776-.26938951-.02945924-.60279641-.08213016-1.20722383-.15413656-1.80757372-.25172598-.4601731-.07483375-.91726539-.173016-1.37182055-.27785622C1.2413058 5.12816492.67212645 4.9819176.10330955 4.83507745c-.1621049-.04186313-.0927867-.17027986-.06157087-.26139372.18647952-.54444862.37970964-1.08657152.57117282-1.62928726.31256613-.88592038.62368248-1.7723424.93951064-2.65707712.07330512-.205257.31347226-.32532846.52718069-.27644255.77772289.17798668 1.5502356.38497658 2.33439195.52693726C5.0636829.65546859 5.72678161.699019 6.38439828.7711166c.2911364.03192177.58340544.05326376.87517612.079394.02256239.00200652.04779783.01158305.06727942.00474267.46388819-.1639411.92156946.06060577 1.38704337.01856023.64928037-.05859925 1.30458641-.05166767 1.95318721-.1153288.9799689-.09613014 1.958488-.21465112 2.9135386-.47431193.173522-.04719863.3535681-.06945266.5298538-.10680113.1368694-.02900321.1936831.03406509.2119868.16334826.0670529.4737647.1387723.94684538.2065954 1.42047327.1075564.75121051.2137084 1.50260343.3198151 2.25404195.0487945.34557599.0933303.69179041.1453416 1.03686477.0202518.13448186-.0081551.21246219-.1578914.23904847-.518346.09207151-1.0345173.1963645-1.5524103.29085295-.3473158.06343312-.6962174.11833857-1.0444847.1766186-.0594414.00994136-.1191095.01947229-.1789587.02608465-.612356.06717253-1.2233074.16056652-1.8374757.19308112-.63210936.03347226-1.26739017.00743321-1.90131181.00743321v.0070684" transform="translate(52 120)"/>
          <path stroke="url(#J)" stroke-width="3" d="M60 126c-6.5 39-52.5 39-60 71"/>
        </g>
        <g fill="url(#K)" transform="translate(426 147)">
          <path d="M.6009599 30.1974802c1.63770883-.1568358 3.20430102-.6906926 4.8217487-.9432699 2.05265721-.3204371 4.08829505-.7226747 6.1265668-1.1204021 1.1897348-.232281 1.3905228.0028702 1.5382266 1.2616568.03181.2708236.0488294.5439024.0940118.8122659.2812247 1.6653295.2182126 1.8012538-1.262675 2.6379164-.6803694.3846064-1.2174925 1.6520036-1.0517563 2.4700099.6994149 3.4489522 2.0356378 6.6664435 3.8982454 9.5977351 2.3950707 3.7691842 5.4611907 6.9247612 9.2206472 9.3808302 1.8593659 1.2147085 3.7823517 2.3236298 5.8147478 3.1315903 3.3031754 1.3133204 6.7593225 2.1161556 10.3149519 2.470625 3.8514422.3839914 7.6256894-.1332592 11.3162581-1.0867798 2.6382044-.6812618 5.207521-1.6476983 7.6133301-3.0637307 1.6796494-.988578 3.3392403-1.9966323 4.8541665-3.2041654 1.8664573-1.4877873 3.5363813-3.2058055 5.0075435-5.1095664 1.4683256-1.8996606 2.7259352-3.940371 3.7189343-6.121926 1.1332061-2.4890762 2.0394874-5.073689 2.3804826-7.8167777.133521-1.0740688-.4443271-1.9500941-1.5398475-2.4665246-.3930663-.1853327-.8292889-.2855846-1.2049306-.4990043-.7184605-.4081831-1.182846-.9410147-.8278707-1.8828495.1768799-.4694823.3193158-1.0047741.28163-1.4947578-.0958352-1.2405403.6775329-1.2393103 1.4602212-1.0728388 2.5901855.5510779 5.2472329.7218546 7.804798 1.4650308 1.3115043.3813262 2.7257326.2759489 4.0196097.7849989v.2050141c-.2974337.8368676-.3106034 1.7335993-.5401623 2.587073-.2767673 1.0295808-.5190907 1.2292645-1.5825985 1.0431117-.978411-.1709817-1.9268354-.3278175-2.8104242.3515992-.4828233.3712805-.794845.7876642-.8961508 1.4113171-.7085324 4.3567546-2.1857729 8.4529363-4.4088264 12.2336014-2.0654217 3.5129166-4.7664358 6.5114528-7.8572744 9.1520344-2.992572 2.5567309-6.3346488 4.5523381-9.9486303 6.0019928-3.4198797 1.3721594-6.9982016 2.2570002-10.7013321 2.4743152-.337956.0196813-.6637553.1256736-1.0049531.1066073-1.7434721.0678597-3.4907937-.1377695-5.2294031.1057873h-.405223c-.450608-.3403234-.9808423-.1533505-1.47177-.2259255-4.7340179-.697048-9.2603591-2.006268-13.5034493-4.3251825-6.0580842-3.3113878-10.8494411-7.9457315-14.2849219-13.942804-1.58340896-2.7642051-2.89045581-5.7082076-3.42089274-8.9224186-.27940128-1.6925964-1.01812284-2.3375708-2.71681774-2.4462283-.81692961-.0524836-1.60103615.2224403-2.41553442.1984537-1.13928452-.0334173-1.40713694-.2386364-1.61886596-1.3867154-.0986718-.5348818-.1195408-1.0810393-.17485374-1.6226866.0228951-.4707124-.1795138-1.0623831.5930439-1.1290126M59.967816 13.3741082c.158053 3.3358436-.5320195 6.4462-1.4437491 9.5223612-.2780286.9377534-.8683342 1.7433524-1.4903354 2.4934345-.7715453.9301098-2.3659021.7577257-3.0278952-.2520388-1.4694886-2.241798-2.0734084-4.7446865-2.579263-7.300477-.4782007-2.4149866-.4231055-4.8315825-.4258709-7.2656783-.0027654-2.40171084.7955829-4.61675608 1.3746142-6.89636993.3080225-1.21332664 1.06255-2.14725827 1.754537-3.12463793.537763-.75993833 1.6605136-.72453623 2.3829199.05149397 1.230601 1.32255017 1.9772577 2.89070243 2.3761128 4.60388263.6345519 2.72737001 1.2616585 5.45715376 1.0789297 8.16802966M24.0030362 13.2536489c-.0202621-2.7362334.0323331-5.47146428 1.0691481-8.07856579.4651657-1.16920542.8150099-2.40337784 1.7580589-3.36845857 1.0325039-1.05671627 1.8707936-1.10062915 2.8164293.01924948 1.3860125 1.64161976 2.1113519 3.56416162 2.560351 5.59718748.5796249 2.6255489.8035855 5.2889953.7925923 7.950236-.0088378 2.1735871-.4748656 4.3279248-.8749339 6.4784527-.2881958 1.5493827-1.1247611 2.8585479-1.8964446 4.1819496-.7522837 1.2897152-2.1484273 1.260841-3.0960029.0780005-1.9432198-2.425635-2.6291128-5.2258329-2.9293796-8.1748132-.1592944-1.5630177-.1892564-3.1198194-.1998186-4.6832382"/>
        </g>
      </g>
    </g>
    <g stroke-width="2">
      <path stroke="#B0B0B0" d="M16 427.5l-5.5 5.5c-.6666667.66666667-1 1.5-1 2.5s.3333333 1.6666667 1 2l17 16c.6666667 1 1 2 1 3s-.3333333 1.8333333-1 2.5L16 471"/>
      <path stroke="#B0B0B0" d="M16 470.75l-5.5 5.5c-.6666667.6666667-1 1.5-1 2.5s.3333333 1.6666667 1 2l17 16c.6666667 1 1 2 1 3s-.3333333 1.8333333-1 2.5l-11.5 12"/>
      <path stroke="#B0B0B0" d="M16 514l-5.5 5.5c-.6666667.6666667-1 1.5-1 2.5s.3333333 1.6666667 1 2l17 16c.6666667 1 1 2 1 3s-.3333333 1.833333-1 2.5l-11.5 12"/>
      <path stroke="#B0B0B0" d="M16 557.25l-5.5 5.5c-.6666667.666667-1 1.5-1 2.5s.3333333 1.666667 1 2l17 16c.6666667 1 1 2 1 3s-.3333333 1.833333-1 2.5l-11.5 12"/>
      <path stroke="#B0B0B0" d="M16 600.5l-5.5 5.5c-.6666667.666667-1 1.5-1 2.5s.3333333 1.666667 1 2l17 16c.6666667 1 1 2 1 3s-.3333333 1.833333-1 2.5L16 644"/>
      <path stroke="#B0B0B0" d="M16 643.75l-5.5 5.5c-.6666667.666667-1 1.5-1 2.5s.3333333 1.666667 1 2l17 16c.6666667 1 1 2 1 3s-.3333333 1.833333-1 2.5l-11.5 12"/>
      <path stroke="#B0B0B0" d="M16 687l-5.5 5.5c-.6666667.666667-1 1.5-1 2.5s.3333333 1.666667 1 2l17 16c.6666667 1 1 2 1 3s-.3333333 1.833333-1 2.5l-11.5 12"/>
      <path stroke="#D6D6D6" d="M7 427.5l5.5 5.5c.6666667.66666667 1 1.5 1 2.5s-.3333333 1.6666667-1 2l-17 16c-.66666667 1-1 2-1 3s.33333333 1.8333333 1 2.5L7 471"/>
      <path stroke="#D6D6D6" d="M7 470.75l5.5 5.5c.6666667.6666667 1 1.5 1 2.5s-.3333333 1.6666667-1 2l-17 16c-.66666667 1-1 2-1 3s.33333333 1.8333333 1 2.5l11.5 12"/>
      <path stroke="#D6D6D6" d="M7 514l5.5 5.5c.6666667.6666667 1 1.5 1 2.5s-.3333333 1.6666667-1 2l-17 16c-.66666667 1-1 2-1 3s.33333333 1.833333 1 2.5l11.5 12"/>
      <path stroke="#D6D6D6" d="M7 557.25l5.5 5.5c.6666667.666667 1 1.5 1 2.5s-.3333333 1.666667-1 2l-17 16c-.66666667 1-1 2-1 3s.33333333 1.833333 1 2.5l11.5 12"/>
      <path stroke="#D6D6D6" d="M7 600.5l5.5 5.5c.6666667.666667 1 1.5 1 2.5s-.3333333 1.666667-1 2l-17 16c-.66666667 1-1 2-1 3s.33333333 1.833333 1 2.5L7 644"/>
      <path stroke="#D6D6D6" d="M7 643.75l5.5 5.5c.6666667.666667 1 1.5 1 2.5s-.3333333 1.666667-1 2l-17 16c-.66666667 1-1 2-1 3s.33333333 1.833333 1 2.5l11.5 12"/>
      <path stroke="#D6D6D6" d="M7 687l5.5 5.5c.6666667.666667 1 1.5 1 2.5s-.3333333 1.666667-1 2l-17 16c-.66666667 1-1 2-1 3s.33333333 1.833333 1 2.5l11.5 12"/>
      <path stroke="#B0B0B0" d="M46 427.5l-5.5 5.5c-.6666667.66666667-1 1.5-1 2.5s.3333333 1.6666667 1 2l17 16c.6666667 1 1 2 1 3s-.3333333 1.8333333-1 2.5L46 471"/>
      <path stroke="#B0B0B0" d="M46 470.75l-5.5 5.5c-.6666667.6666667-1 1.5-1 2.5s.3333333 1.6666667 1 2l17 16c.6666667 1 1 2 1 3s-.3333333 1.8333333-1 2.5l-11.5 12"/>
      <path stroke="#B0B0B0" d="M46 514l-5.5 5.5c-.6666667.6666667-1 1.5-1 2.5s.3333333 1.6666667 1 2l17 16c.6666667 1 1 2 1 3s-.3333333 1.833333-1 2.5l-11.5 12"/>
      <path stroke="#B0B0B0" d="M46 557.25l-5.5 5.5c-.6666667.666667-1 1.5-1 2.5s.3333333 1.666667 1 2l17 16c.6666667 1 1 2 1 3s-.3333333 1.833333-1 2.5l-11.5 12"/>
      <path stroke="#B0B0B0" d="M46 600.5l-5.5 5.5c-.6666667.666667-1 1.5-1 2.5s.3333333 1.666667 1 2l17 16c.6666667 1 1 2 1 3s-.3333333 1.833333-1 2.5L46 644"/>
      <path stroke="#B0B0B0" d="M46 643.75l-5.5 5.5c-.6666667.666667-1 1.5-1 2.5s.3333333 1.666667 1 2l17 16c.6666667 1 1 2 1 3s-.3333333 1.833333-1 2.5l-11.5 12"/>
      <path stroke="#B0B0B0" d="M46 687l-5.5 5.5c-.6666667.666667-1 1.5-1 2.5s.3333333 1.666667 1 2l17 16c.6666667 1 1 2 1 3s-.3333333 1.833333-1 2.5l-11.5 12"/>
      <path stroke="#D6D6D6" d="M37 427.5l5.5 5.5c.6666667.66666667 1 1.5 1 2.5s-.3333333 1.6666667-1 2l-17 16c-.6666667 1-1 2-1 3s.3333333 1.8333333 1 2.5L37 471"/>
      <path stroke="#D6D6D6" d="M37 470.75l5.5 5.5c.6666667.6666667 1 1.5 1 2.5s-.3333333 1.6666667-1 2l-17 16c-.6666667 1-1 2-1 3s.3333333 1.8333333 1 2.5l11.5 12"/>
      <path stroke="#D6D6D6" d="M37 514l5.5 5.5c.6666667.6666667 1 1.5 1 2.5s-.3333333 1.6666667-1 2l-17 16c-.6666667 1-1 2-1 3s.3333333 1.833333 1 2.5l11.5 12"/>
      <path stroke="#D6D6D6" d="M37 557.25l5.5 5.5c.6666667.666667 1 1.5 1 2.5s-.3333333 1.666667-1 2l-17 16c-.6666667 1-1 2-1 3s.3333333 1.833333 1 2.5l11.5 12"/>
      <path stroke="#D6D6D6" d="M37 600.5l5.5 5.5c.6666667.666667 1 1.5 1 2.5s-.3333333 1.666667-1 2l-17 16c-.6666667 1-1 2-1 3s.3333333 1.833333 1 2.5L37 644"/>
      <path stroke="#D6D6D6" d="M37 643.75l5.5 5.5c.6666667.666667 1 1.5 1 2.5s-.3333333 1.666667-1 2l-17 16c-.6666667 1-1 2-1 3s.3333333 1.833333 1 2.5l11.5 12"/>
      <path stroke="#D6D6D6" d="M37 687l5.5 5.5c.6666667.666667 1 1.5 1 2.5s-.3333333 1.666667-1 2l-17 16c-.6666667 1-1 2-1 3s.3333333 1.833333 1 2.5l11.5 12"/>
      <path stroke="#B0B0B0" d="M76 427.5l-5.5 5.5c-.6666667.66666667-1 1.5-1 2.5s.3333333 1.6666667 1 2l17 16c.6666667 1 1 2 1 3s-.3333333 1.8333333-1 2.5L76 471"/>
      <path stroke="#B0B0B0" d="M76 470.75l-5.5 5.5c-.6666667.6666667-1 1.5-1 2.5s.3333333 1.6666667 1 2l17 16c.6666667 1 1 2 1 3s-.3333333 1.8333333-1 2.5l-11.5 12"/>
      <path stroke="#B0B0B0" d="M76 514l-5.5 5.5c-.6666667.6666667-1 1.5-1 2.5s.3333333 1.6666667 1 2l17 16c.6666667 1 1 2 1 3s-.3333333 1.833333-1 2.5l-11.5 12"/>
      <path stroke="#B0B0B0" d="M76 557.25l-5.5 5.5c-.6666667.666667-1 1.5-1 2.5s.3333333 1.666667 1 2l17 16c.6666667 1 1 2 1 3s-.3333333 1.833333-1 2.5l-11.5 12"/>
      <path stroke="#B0B0B0" d="M76 600.5l-5.5 5.5c-.6666667.666667-1 1.5-1 2.5s.3333333 1.666667 1 2l17 16c.6666667 1 1 2 1 3s-.3333333 1.833333-1 2.5L76 644"/>
      <path stroke="#B0B0B0" d="M76 643.75l-5.5 5.5c-.6666667.666667-1 1.5-1 2.5s.3333333 1.666667 1 2l17 16c.6666667 1 1 2 1 3s-.3333333 1.833333-1 2.5l-11.5 12"/>
      <path stroke="#B0B0B0" d="M76 687l-5.5 5.5c-.6666667.666667-1 1.5-1 2.5s.3333333 1.666667 1 2l17 16c.6666667 1 1 2 1 3s-.3333333 1.833333-1 2.5l-11.5 12"/>
      <path stroke="#D6D6D6" d="M67 427.5l5.5 5.5c.6666667.66666667 1 1.5 1 2.5s-.3333333 1.6666667-1 2l-17 16c-.6666667 1-1 2-1 3s.3333333 1.8333333 1 2.5L67 471"/>
      <path stroke="#D6D6D6" d="M67 470.75l5.5 5.5c.6666667.6666667 1 1.5 1 2.5s-.3333333 1.6666667-1 2l-17 16c-.6666667 1-1 2-1 3s.3333333 1.8333333 1 2.5l11.5 12"/>
      <path stroke="#D6D6D6" d="M67 514l5.5 5.5c.6666667.6666667 1 1.5 1 2.5s-.3333333 1.6666667-1 2l-17 16c-.6666667 1-1 2-1 3s.3333333 1.833333 1 2.5l11.5 12"/>
      <path stroke="#D6D6D6" d="M67 557.25l5.5 5.5c.6666667.666667 1 1.5 1 2.5s-.3333333 1.666667-1 2l-17 16c-.6666667 1-1 2-1 3s.3333333 1.833333 1 2.5l11.5 12"/>
      <path stroke="#D6D6D6" d="M67 600.5l5.5 5.5c.6666667.666667 1 1.5 1 2.5s-.3333333 1.666667-1 2l-17 16c-.6666667 1-1 2-1 3s.3333333 1.833333 1 2.5L67 644"/>
      <path stroke="#D6D6D6" d="M67 643.75l5.5 5.5c.6666667.666667 1 1.5 1 2.5s-.3333333 1.666667-1 2l-17 16c-.6666667 1-1 2-1 3s.3333333 1.833333 1 2.5l11.5 12"/>
      <path stroke="#D6D6D6" d="M67 687l5.5 5.5c.6666667.666667 1 1.5 1 2.5s-.3333333 1.666667-1 2l-17 16c-.6666667 1-1 2-1 3s.3333333 1.833333 1 2.5l11.5 12"/>
      <path stroke="#B0B0B0" d="M106 427.5l-5.5 5.5c-.666667.66666667-1 1.5-1 2.5s.333333 1.6666667 1 2l17 16c.666667 1 1 2 1 3s-.333333 1.8333333-1 2.5L106 471"/>
      <path stroke="#B0B0B0" d="M106 470.75l-5.5 5.5c-.666667.6666667-1 1.5-1 2.5s.333333 1.6666667 1 2l17 16c.666667 1 1 2 1 3s-.333333 1.8333333-1 2.5l-11.5 12"/>
      <path stroke="#B0B0B0" d="M106 514l-5.5 5.5c-.666667.6666667-1 1.5-1 2.5s.333333 1.6666667 1 2l17 16c.666667 1 1 2 1 3s-.333333 1.833333-1 2.5l-11.5 12"/>
      <path stroke="#B0B0B0" d="M106 557.25l-5.5 5.5c-.666667.666667-1 1.5-1 2.5s.333333 1.666667 1 2l17 16c.666667 1 1 2 1 3s-.333333 1.833333-1 2.5l-11.5 12"/>
      <path stroke="#B0B0B0" d="M106 600.5l-5.5 5.5c-.666667.666667-1 1.5-1 2.5s.333333 1.666667 1 2l17 16c.666667 1 1 2 1 3s-.333333 1.833333-1 2.5L106 644"/>
      <path stroke="#B0B0B0" d="M106 643.75l-5.5 5.5c-.666667.666667-1 1.5-1 2.5s.333333 1.666667 1 2l17 16c.666667 1 1 2 1 3s-.333333 1.833333-1 2.5l-11.5 12"/>
      <path stroke="#B0B0B0" d="M106 687l-5.5 5.5c-.666667.666667-1 1.5-1 2.5s.333333 1.666667 1 2l17 16c.666667 1 1 2 1 3s-.333333 1.833333-1 2.5l-11.5 12"/>
      <path stroke="#D6D6D6" d="M97 427.5l5.5 5.5c.666667.66666667 1 1.5 1 2.5s-.333333 1.6666667-1 2l-17 16c-.6666667 1-1 2-1 3s.3333333 1.8333333 1 2.5L97 471"/>
      <path stroke="#D6D6D6" d="M97 470.75l5.5 5.5c.666667.6666667 1 1.5 1 2.5s-.333333 1.6666667-1 2l-17 16c-.6666667 1-1 2-1 3s.3333333 1.8333333 1 2.5l11.5 12"/>
      <path stroke="#D6D6D6" d="M97 514l5.5 5.5c.666667.6666667 1 1.5 1 2.5s-.333333 1.6666667-1 2l-17 16c-.6666667 1-1 2-1 3s.3333333 1.833333 1 2.5l11.5 12"/>
      <path stroke="#D6D6D6" d="M97 557.25l5.5 5.5c.666667.666667 1 1.5 1 2.5s-.333333 1.666667-1 2l-17 16c-.6666667 1-1 2-1 3s.3333333 1.833333 1 2.5l11.5 12"/>
      <path stroke="#D6D6D6" d="M97 600.5l5.5 5.5c.666667.666667 1 1.5 1 2.5s-.333333 1.666667-1 2l-17 16c-.6666667 1-1 2-1 3s.3333333 1.833333 1 2.5L97 644"/>
      <path stroke="#D6D6D6" d="M97 643.75l5.5 5.5c.666667.666667 1 1.5 1 2.5s-.333333 1.666667-1 2l-17 16c-.6666667 1-1 2-1 3s.3333333 1.833333 1 2.5l11.5 12"/>
      <path stroke="#D6D6D6" d="M97 687l5.5 5.5c.666667.666667 1 1.5 1 2.5s-.333333 1.666667-1 2l-17 16c-.6666667 1-1 2-1 3s.3333333 1.833333 1 2.5l11.5 12"/>
      <path stroke="#B0B0B0" d="M136 427.5l-5.5 5.5c-.666667.66666667-1 1.5-1 2.5s.333333 1.6666667 1 2l17 16c.666667 1 1 2 1 3s-.333333 1.8333333-1 2.5L136 471"/>
      <path stroke="#B0B0B0" d="M136 470.75l-5.5 5.5c-.666667.6666667-1 1.5-1 2.5s.333333 1.6666667 1 2l17 16c.666667 1 1 2 1 3s-.333333 1.8333333-1 2.5l-11.5 12"/>
      <path stroke="#B0B0B0" d="M136 514l-5.5 5.5c-.666667.6666667-1 1.5-1 2.5s.333333 1.6666667 1 2l17 16c.666667 1 1 2 1 3s-.333333 1.833333-1 2.5l-11.5 12"/>
      <path stroke="#B0B0B0" d="M136 557.25l-5.5 5.5c-.666667.666667-1 1.5-1 2.5s.333333 1.666667 1 2l17 16c.666667 1 1 2 1 3s-.333333 1.833333-1 2.5l-11.5 12"/>
      <path stroke="#B0B0B0" d="M136 600.5l-5.5 5.5c-.666667.666667-1 1.5-1 2.5s.333333 1.666667 1 2l17 16c.666667 1 1 2 1 3s-.333333 1.833333-1 2.5L136 644"/>
      <path stroke="#B0B0B0" d="M136 643.75l-5.5 5.5c-.666667.666667-1 1.5-1 2.5s.333333 1.666667 1 2l17 16c.666667 1 1 2 1 3s-.333333 1.833333-1 2.5l-11.5 12"/>
      <path stroke="#B0B0B0" d="M136 687l-5.5 5.5c-.666667.666667-1 1.5-1 2.5s.333333 1.666667 1 2l17 16c.666667 1 1 2 1 3s-.333333 1.833333-1 2.5l-11.5 12"/>
      <path stroke="#D6D6D6" d="M127 427.5l5.5 5.5c.666667.66666667 1 1.5 1 2.5s-.333333 1.6666667-1 2l-17 16c-.666667 1-1 2-1 3s.333333 1.8333333 1 2.5l11.5 12"/>
      <path stroke="#D6D6D6" d="M127 470.75l5.5 5.5c.666667.6666667 1 1.5 1 2.5s-.333333 1.6666667-1 2l-17 16c-.666667 1-1 2-1 3s.333333 1.8333333 1 2.5l11.5 12"/>
      <path stroke="#D6D6D6" d="M127 514l5.5 5.5c.666667.6666667 1 1.5 1 2.5s-.333333 1.6666667-1 2l-17 16c-.666667 1-1 2-1 3s.333333 1.833333 1 2.5l11.5 12"/>
      <path stroke="#D6D6D6" d="M127 557.25l5.5 5.5c.666667.666667 1 1.5 1 2.5s-.333333 1.666667-1 2l-17 16c-.666667 1-1 2-1 3s.333333 1.833333 1 2.5l11.5 12"/>
      <path stroke="#D6D6D6" d="M127 600.5l5.5 5.5c.666667.666667 1 1.5 1 2.5s-.333333 1.666667-1 2l-17 16c-.666667 1-1 2-1 3s.333333 1.833333 1 2.5l11.5 12"/>
      <path stroke="#D6D6D6" d="M127 643.75l5.5 5.5c.666667.666667 1 1.5 1 2.5s-.333333 1.666667-1 2l-17 16c-.666667 1-1 2-1 3s.333333 1.833333 1 2.5l11.5 12"/>
      <path stroke="#D6D6D6" d="M127 687l5.5 5.5c.666667.666667 1 1.5 1 2.5s-.333333 1.666667-1 2l-17 16c-.666667 1-1 2-1 3s.333333 1.833333 1 2.5l11.5 12"/>
      <path stroke="#B0B0B0" d="M166 427.5l-5.5 5.5c-.666667.66666667-1 1.5-1 2.5s.333333 1.6666667 1 2l17 16c.666667 1 1 2 1 3s-.333333 1.8333333-1 2.5L166 471"/>
      <path stroke="#B0B0B0" d="M166 470.75l-5.5 5.5c-.666667.6666667-1 1.5-1 2.5s.333333 1.6666667 1 2l17 16c.666667 1 1 2 1 3s-.333333 1.8333333-1 2.5l-11.5 12"/>
      <path stroke="#B0B0B0" d="M166 514l-5.5 5.5c-.666667.6666667-1 1.5-1 2.5s.333333 1.6666667 1 2l17 16c.666667 1 1 2 1 3s-.333333 1.833333-1 2.5l-11.5 12"/>
      <path stroke="#B0B0B0" d="M166 557.25l-5.5 5.5c-.666667.666667-1 1.5-1 2.5s.333333 1.666667 1 2l17 16c.666667 1 1 2 1 3s-.333333 1.833333-1 2.5l-11.5 12"/>
      <path stroke="#B0B0B0" d="M166 600.5l-5.5 5.5c-.666667.666667-1 1.5-1 2.5s.333333 1.666667 1 2l17 16c.666667 1 1 2 1 3s-.333333 1.833333-1 2.5L166 644"/>
      <path stroke="#B0B0B0" d="M166 643.75l-5.5 5.5c-.666667.666667-1 1.5-1 2.5s.333333 1.666667 1 2l17 16c.666667 1 1 2 1 3s-.333333 1.833333-1 2.5l-11.5 12"/>
      <path stroke="#B0B0B0" d="M166 687l-5.5 5.5c-.666667.666667-1 1.5-1 2.5s.333333 1.666667 1 2l17 16c.666667 1 1 2 1 3s-.333333 1.833333-1 2.5l-11.5 12"/>
      <path stroke="#D6D6D6" d="M157 427.5l5.5 5.5c.666667.66666667 1 1.5 1 2.5s-.333333 1.6666667-1 2l-17 16c-.666667 1-1 2-1 3s.333333 1.8333333 1 2.5l11.5 12"/>
      <path stroke="#D6D6D6" d="M157 470.75l5.5 5.5c.666667.6666667 1 1.5 1 2.5s-.333333 1.6666667-1 2l-17 16c-.666667 1-1 2-1 3s.333333 1.8333333 1 2.5l11.5 12"/>
      <path stroke="#D6D6D6" d="M157 514l5.5 5.5c.666667.6666667 1 1.5 1 2.5s-.333333 1.6666667-1 2l-17 16c-.666667 1-1 2-1 3s.333333 1.833333 1 2.5l11.5 12"/>
      <path stroke="#D6D6D6" d="M157 557.25l5.5 5.5c.666667.666667 1 1.5 1 2.5s-.333333 1.666667-1 2l-17 16c-.666667 1-1 2-1 3s.333333 1.833333 1 2.5l11.5 12"/>
      <path stroke="#D6D6D6" d="M157 600.5l5.5 5.5c.666667.666667 1 1.5 1 2.5s-.333333 1.666667-1 2l-17 16c-.666667 1-1 2-1 3s.333333 1.833333 1 2.5l11.5 12"/>
      <path stroke="#D6D6D6" d="M157 643.75l5.5 5.5c.666667.666667 1 1.5 1 2.5s-.333333 1.666667-1 2l-17 16c-.666667 1-1 2-1 3s.333333 1.833333 1 2.5l11.5 12"/>
      <path stroke="#D6D6D6" d="M157 687l5.5 5.5c.666667.666667 1 1.5 1 2.5s-.333333 1.666667-1 2l-17 16c-.666667 1-1 2-1 3s.333333 1.833333 1 2.5l11.5 12"/>
      <path stroke="#B0B0B0" d="M196 427.5l-5.5 5.5c-.666667.66666667-1 1.5-1 2.5s.333333 1.6666667 1 2l17 16c.666667 1 1 2 1 3s-.333333 1.8333333-1 2.5L196 471"/>
      <path stroke="#B0B0B0" d="M196 470.75l-5.5 5.5c-.666667.6666667-1 1.5-1 2.5s.333333 1.6666667 1 2l17 16c.666667 1 1 2 1 3s-.333333 1.8333333-1 2.5l-11.5 12"/>
      <path stroke="#B0B0B0" d="M196 514l-5.5 5.5c-.666667.6666667-1 1.5-1 2.5s.333333 1.6666667 1 2l17 16c.666667 1 1 2 1 3s-.333333 1.833333-1 2.5l-11.5 12"/>
      <path stroke="#B0B0B0" d="M196 557.25l-5.5 5.5c-.666667.666667-1 1.5-1 2.5s.333333 1.666667 1 2l17 16c.666667 1 1 2 1 3s-.333333 1.833333-1 2.5l-11.5 12"/>
      <path stroke="#B0B0B0" d="M196 600.5l-5.5 5.5c-.666667.666667-1 1.5-1 2.5s.333333 1.666667 1 2l17 16c.666667 1 1 2 1 3s-.333333 1.833333-1 2.5L196 644"/>
      <path stroke="#B0B0B0" d="M196 643.75l-5.5 5.5c-.666667.666667-1 1.5-1 2.5s.333333 1.666667 1 2l17 16c.666667 1 1 2 1 3s-.333333 1.833333-1 2.5l-11.5 12"/>
      <path stroke="#B0B0B0" d="M196 687l-5.5 5.5c-.666667.666667-1 1.5-1 2.5s.333333 1.666667 1 2l17 16c.666667 1 1 2 1 3s-.333333 1.833333-1 2.5l-11.5 12"/>
      <path stroke="#D6D6D6" d="M187 427.5l5.5 5.5c.666667.66666667 1 1.5 1 2.5s-.333333 1.6666667-1 2l-17 16c-.666667 1-1 2-1 3s.333333 1.8333333 1 2.5l11.5 12"/>
      <path stroke="#D6D6D6" d="M187 470.75l5.5 5.5c.666667.6666667 1 1.5 1 2.5s-.333333 1.6666667-1 2l-17 16c-.666667 1-1 2-1 3s.333333 1.8333333 1 2.5l11.5 12"/>
      <path stroke="#D6D6D6" d="M187 514l5.5 5.5c.666667.6666667 1 1.5 1 2.5s-.333333 1.6666667-1 2l-17 16c-.666667 1-1 2-1 3s.333333 1.833333 1 2.5l11.5 12"/>
      <path stroke="#D6D6D6" d="M187 557.25l5.5 5.5c.666667.666667 1 1.5 1 2.5s-.333333 1.666667-1 2l-17 16c-.666667 1-1 2-1 3s.333333 1.833333 1 2.5l11.5 12"/>
      <path stroke="#D6D6D6" d="M187 600.5l5.5 5.5c.666667.666667 1 1.5 1 2.5s-.333333 1.666667-1 2l-17 16c-.666667 1-1 2-1 3s.333333 1.833333 1 2.5l11.5 12"/>
      <path stroke="#D6D6D6" d="M187 643.75l5.5 5.5c.666667.666667 1 1.5 1 2.5s-.333333 1.666667-1 2l-17 16c-.666667 1-1 2-1 3s.333333 1.833333 1 2.5l11.5 12"/>
      <path stroke="#D6D6D6" d="M187 687l5.5 5.5c.666667.666667 1 1.5 1 2.5s-.333333 1.666667-1 2l-17 16c-.666667 1-1 2-1 3s.333333 1.833333 1 2.5l11.5 12"/>
      <path stroke="#B0B0B0" d="M226 427.5l-5.5 5.5c-.666667.66666667-1 1.5-1 2.5s.333333 1.6666667 1 2l17 16c.666667 1 1 2 1 3s-.333333 1.8333333-1 2.5L226 471M256 427.5l-5.5 5.5c-.666667.66666667-1 1.5-1 2.5s.333333 1.6666667 1 2l17 16c.666667 1 1 2 1 3s-.333333 1.8333333-1 2.5L256 471"/>
      <path stroke="#B0B0B0" d="M226 470.75l-5.5 5.5c-.666667.6666667-1 1.5-1 2.5s.333333 1.6666667 1 2l17 16c.666667 1 1 2 1 3s-.333333 1.8333333-1 2.5l-11.5 12M256 470.75l-5.5 5.5c-.666667.6666667-1 1.5-1 2.5s.333333 1.6666667 1 2c5.46621 4.7432552 8.632876 6.3265885 9.5 4.75"/>
      <path stroke="#B0B0B0" d="M226 514l-5.5 5.5c-.666667.6666667-1 1.5-1 2.5s.333333 1.6666667 1 2l17 16c.666667 1 1 2 1 3s-.333333 1.833333-1 2.5l-11.5 12"/>
      <path stroke="#B0B0B0" d="M226 557.25l-5.5 5.5c-.666667.666667-1 1.5-1 2.5s.333333 1.666667 1 2l17 16c.666667 1 1 2 1 3s-.333333 1.833333-1 2.5l-11.5 12M263 560c-2.666667-3.333333-6.833333-2.416667-12.5 2.75-.666667.666667-1 1.5-1 2.5s.333333 1.666667 1 2l17 16c.666667 1 1 2 1 3s-.333333 1.833333-1 2.5l-11.5 12"/>
      <path stroke="#B0B0B0" d="M226 600.5l-5.5 5.5c-.666667.666667-1 1.5-1 2.5s.333333 1.666667 1 2l17 16c.666667 1 1 2 1 3s-.333333 1.833333-1 2.5L226 644M256 600.5l-5.5 5.5c-.666667.666667-1 1.5-1 2.5s.333333 1.666667 1 2l17 16c.666667 1 1 2 1 3s-.333333 1.833333-1 2.5L256 644"/>
      <path stroke="#B0B0B0" d="M226 643.75l-5.5 5.5c-.666667.666667-1 1.5-1 2.5s.333333 1.666667 1 2l17 16c.666667 1 1 2 1 3s-.333333 1.833333-1 2.5l-11.5 12M256 643.75l-5.5 5.5c-.666667.666667-1 1.5-1 2.5s.333333 1.666667 1 2c1.333333 8.166667 4.666667 11.416667 10 9.75"/>
      <path stroke="#B0B0B0" d="M226 687l-5.5 5.5c-.666667.666667-1 1.5-1 2.5s.333333 1.666667 1 2l17 16c.666667 1 1 2 1 3s-.333333 1.833333-1 2.5l-11.5 12"/>
      <path stroke="#D6D6D6" d="M217 427.5l5.5 5.5c.666667.66666667 1 1.5 1 2.5s-.333333 1.6666667-1 2l-17 16c-.666667 1-1 2-1 3s.333333 1.8333333 1 2.5l11.5 12"/>
      <path stroke="#D6D6D6" d="M217 470.75l5.5 5.5c.666667.6666667 1 1.5 1 2.5s-.333333 1.6666667-1 2l-17 16c-.666667 1-1 2-1 3s.333333 1.8333333 1 2.5l11.5 12"/>
      <path stroke="#D6D6D6" d="M217 514l5.5 5.5c.666667.6666667 1 1.5 1 2.5s-.333333 1.6666667-1 2l-17 16c-.666667 1-1 2-1 3s.333333 1.833333 1 2.5l11.5 12"/>
      <path stroke="#D6D6D6" d="M217 557.25l5.5 5.5c.666667.666667 1 1.5 1 2.5s-.333333 1.666667-1 2l-17 16c-.666667 1-1 2-1 3s.333333 1.833333 1 2.5l11.5 12"/>
      <path stroke="#D6D6D6" d="M217 600.5l5.5 5.5c.666667.666667 1 1.5 1 2.5s-.333333 1.666667-1 2l-17 16c-.666667 1-1 2-1 3s.333333 1.833333 1 2.5l11.5 12"/>
      <path stroke="#D6D6D6" d="M217 643.75l5.5 5.5c.666667.666667 1 1.5 1 2.5s-.333333 1.666667-1 2l-17 16c-.666667 1-1 2-1 3s.333333 1.833333 1 2.5l11.5 12"/>
      <path stroke="#D6D6D6" d="M217 687l5.5 5.5c.666667.666667 1 1.5 1 2.5s-.333333 1.666667-1 2l-17 16c-.666667 1-1 2-1 3s.333333 1.833333 1 2.5l11.5 12M247 427.5l5.5 5.5c.666667.66666667 1 1.5 1 2.5s-.333333 1.6666667-1 2l-17 16c-.666667 1-1 2-1 3s.333333 1.8333333 1 2.5l11.5 12"/>
      <path stroke="#D6D6D6" d="M247 470.75l5.5 5.5c.666667.6666667 1 1.5 1 2.5s-.333333 1.6666667-1 2l-17 16c-.666667 1-1 2-1 3s.333333 1.8333333 1 2.5c3.333333 5.5 4.166667 9.5 2.5 12M245 540c-2.833333-2-6-2-9.5 0-.666667 1-1 2-1 3s.333333 1.833333 1 2.5l11.5 12"/>
      <path stroke="#D6D6D6" d="M247 557.25l5.5 5.5c.666667.666667 1 1.5 1 2.5s-.333333 1.666667-1 2l-17 16c-.666667 1-1 2-1 3s.333333 1.833333 1 2.5l11.5 12"/>
      <path stroke="#D6D6D6" d="M247 600.5l5.5 5.5c.666667.666667 1 1.5 1 2.5s-.333333 1.666667-1 2l-17 16c-.666667 1-1 2-1 3s.333333 1.833333 1 2.5l11.5 12"/>
      <path stroke="#D6D6D6" d="M247 643.75l5.5 5.5c.666667.666667 1 1.5 1 2.5s-.333333 1.666667-1 2l-17 16c-.666667 1-1 2-1 3s.333333 1.833333 1 2.5c3.666667 3.833333 5.5 7.416667 5.5 10.75"/>
    </g>
    <g stroke-width="2">
      <path stroke="#B0B0B0" d="M1362 427.5l5.5 5.5c.6666667.66666667 1 1.5 1 2.5s-.3333333 1.6666667-1 2l-17 16c-.6666667 1-1 2-1 3s.3333333 1.8333333 1 2.5l11.5 12"/>
      <path stroke="#B0B0B0" d="M1362 470.75l5.5 5.5c.6666667.6666667 1 1.5 1 2.5s-.3333333 1.6666667-1 2l-17 16c-.6666667 1-1 2-1 3s.3333333 1.8333333 1 2.5l11.5 12"/>
      <path stroke="#B0B0B0" d="M1362 514l5.5 5.5c.6666667.6666667 1 1.5 1 2.5s-.3333333 1.6666667-1 2l-17 16c-.6666667 1-1 2-1 3s.3333333 1.833333 1 2.5l11.5 12"/>
      <path stroke="#B0B0B0" d="M1362 557.25l5.5 5.5c.6666667.666667 1 1.5 1 2.5s-.3333333 1.666667-1 2l-17 16c-.6666667 1-1 2-1 3s.3333333 1.833333 1 2.5l11.5 12"/>
      <path stroke="#B0B0B0" d="M1362 600.5l5.5 5.5c.6666667.666667 1 1.5 1 2.5s-.3333333 1.666667-1 2l-17 16c-.6666667 1-1 2-1 3s.3333333 1.833333 1 2.5l11.5 12"/>
      <path stroke="#B0B0B0" d="M1362 643.75l5.5 5.5c.6666667.666667 1 1.5 1 2.5s-.3333333 1.666667-1 2l-17 16c-.6666667 1-1 2-1 3s.3333333 1.833333 1 2.5l11.5 12"/>
      <path stroke="#B0B0B0" d="M1362 687l5.5 5.5c.6666667.666667 1 1.5 1 2.5s-.3333333 1.666667-1 2l-17 16c-.6666667 1-1 2-1 3s.3333333 1.833333 1 2.5l11.5 12"/>
      <path stroke="#D6D6D6" d="M1371 427.5l-5.5 5.5c-.6666667.66666667-1 1.5-1 2.5s.3333333 1.6666667 1 2l17 16c.66666667 1 1 2 1 3s-.33333333 1.8333333-1 2.5l-11.5 12"/>
      <path stroke="#D6D6D6" d="M1371 470.75l-5.5 5.5c-.6666667.6666667-1 1.5-1 2.5s.3333333 1.6666667 1 2l17 16c.66666667 1 1 2 1 3s-.33333333 1.8333333-1 2.5l-11.5 12"/>
      <path stroke="#D6D6D6" d="M1371 514l-5.5 5.5c-.6666667.6666667-1 1.5-1 2.5s.3333333 1.6666667 1 2l17 16c.66666667 1 1 2 1 3s-.33333333 1.833333-1 2.5l-11.5 12"/>
      <path stroke="#D6D6D6" d="M1371 557.25l-5.5 5.5c-.6666667.666667-1 1.5-1 2.5s.3333333 1.666667 1 2l17 16c.66666667 1 1 2 1 3s-.33333333 1.833333-1 2.5l-11.5 12"/>
      <path stroke="#D6D6D6" d="M1371 600.5l-5.5 5.5c-.6666667.666667-1 1.5-1 2.5s.3333333 1.666667 1 2l17 16c.66666667 1 1 2 1 3s-.33333333 1.833333-1 2.5l-11.5 12"/>
      <path stroke="#D6D6D6" d="M1371 643.75l-5.5 5.5c-.6666667.666667-1 1.5-1 2.5s.3333333 1.666667 1 2l17 16c.66666667 1 1 2 1 3s-.33333333 1.833333-1 2.5l-11.5 12"/>
      <path stroke="#D6D6D6" d="M1371 687l-5.5 5.5c-.6666667.666667-1 1.5-1 2.5s.3333333 1.666667 1 2l17 16c.66666667 1 1 2 1 3s-.33333333 1.833333-1 2.5l-11.5 12"/>
      <path stroke="#B0B0B0" d="M1332 427.5l5.5 5.5c.6666667.66666667 1 1.5 1 2.5s-.3333333 1.6666667-1 2l-17 16c-.6666667 1-1 2-1 3s.3333333 1.8333333 1 2.5l11.5 12"/>
      <path stroke="#B0B0B0" d="M1332 470.75l5.5 5.5c.6666667.6666667 1 1.5 1 2.5s-.3333333 1.6666667-1 2l-17 16c-.6666667 1-1 2-1 3s.3333333 1.8333333 1 2.5l11.5 12"/>
      <path stroke="#B0B0B0" d="M1332 514l5.5 5.5c.6666667.6666667 1 1.5 1 2.5s-.3333333 1.6666667-1 2l-17 16c-.6666667 1-1 2-1 3s.3333333 1.833333 1 2.5l11.5 12"/>
      <path stroke="#B0B0B0" d="M1332 557.25l5.5 5.5c.6666667.666667 1 1.5 1 2.5s-.3333333 1.666667-1 2l-17 16c-.6666667 1-1 2-1 3s.3333333 1.833333 1 2.5l11.5 12"/>
      <path stroke="#B0B0B0" d="M1332 600.5l5.5 5.5c.6666667.666667 1 1.5 1 2.5s-.3333333 1.666667-1 2l-17 16c-.6666667 1-1 2-1 3s.3333333 1.833333 1 2.5l11.5 12"/>
      <path stroke="#B0B0B0" d="M1332 643.75l5.5 5.5c.6666667.666667 1 1.5 1 2.5s-.3333333 1.666667-1 2l-17 16c-.6666667 1-1 2-1 3s.3333333 1.833333 1 2.5l11.5 12"/>
      <path stroke="#B0B0B0" d="M1332 687l5.5 5.5c.6666667.666667 1 1.5 1 2.5s-.3333333 1.666667-1 2l-17 16c-.6666667 1-1 2-1 3s.3333333 1.833333 1 2.5l11.5 12"/>
      <path stroke="#D6D6D6" d="M1341 427.5l-5.5 5.5c-.6666667.66666667-1 1.5-1 2.5s.3333333 1.6666667 1 2l17 16c.6666667 1 1 2 1 3s-.3333333 1.8333333-1 2.5l-11.5 12"/>
      <path stroke="#D6D6D6" d="M1341 470.75l-5.5 5.5c-.6666667.6666667-1 1.5-1 2.5s.3333333 1.6666667 1 2l17 16c.6666667 1 1 2 1 3s-.3333333 1.8333333-1 2.5l-11.5 12"/>
      <path stroke="#D6D6D6" d="M1341 514l-5.5 5.5c-.6666667.6666667-1 1.5-1 2.5s.3333333 1.6666667 1 2l17 16c.6666667 1 1 2 1 3s-.3333333 1.833333-1 2.5l-11.5 12"/>
      <path stroke="#D6D6D6" d="M1341 557.25l-5.5 5.5c-.6666667.666667-1 1.5-1 2.5s.3333333 1.666667 1 2l17 16c.6666667 1 1 2 1 3s-.3333333 1.833333-1 2.5l-11.5 12"/>
      <path stroke="#D6D6D6" d="M1341 600.5l-5.5 5.5c-.6666667.666667-1 1.5-1 2.5s.3333333 1.666667 1 2l17 16c.6666667 1 1 2 1 3s-.3333333 1.833333-1 2.5l-11.5 12"/>
      <path stroke="#D6D6D6" d="M1341 643.75l-5.5 5.5c-.6666667.666667-1 1.5-1 2.5s.3333333 1.666667 1 2l17 16c.6666667 1 1 2 1 3s-.3333333 1.833333-1 2.5l-11.5 12"/>
      <path stroke="#D6D6D6" d="M1341 687l-5.5 5.5c-.6666667.666667-1 1.5-1 2.5s.3333333 1.666667 1 2l17 16c.6666667 1 1 2 1 3s-.3333333 1.833333-1 2.5l-11.5 12"/>
      <path stroke="#B0B0B0" d="M1302 427.5l5.5 5.5c.6666667.66666667 1 1.5 1 2.5s-.3333333 1.6666667-1 2l-17 16c-.6666667 1-1 2-1 3s.3333333 1.8333333 1 2.5l11.5 12"/>
      <path stroke="#B0B0B0" d="M1302 470.75l5.5 5.5c.6666667.6666667 1 1.5 1 2.5s-.3333333 1.6666667-1 2l-17 16c-.6666667 1-1 2-1 3s.3333333 1.8333333 1 2.5l11.5 12"/>
      <path stroke="#B0B0B0" d="M1302 514l5.5 5.5c.6666667.6666667 1 1.5 1 2.5s-.3333333 1.6666667-1 2l-17 16c-.6666667 1-1 2-1 3s.3333333 1.833333 1 2.5l11.5 12"/>
      <path stroke="#B0B0B0" d="M1302 557.25l5.5 5.5c.6666667.666667 1 1.5 1 2.5s-.3333333 1.666667-1 2l-17 16c-.6666667 1-1 2-1 3s.3333333 1.833333 1 2.5l11.5 12"/>
      <path stroke="#B0B0B0" d="M1302 600.5l5.5 5.5c.6666667.666667 1 1.5 1 2.5s-.3333333 1.666667-1 2l-17 16c-.6666667 1-1 2-1 3s.3333333 1.833333 1 2.5l11.5 12"/>
      <path stroke="#B0B0B0" d="M1302 643.75l5.5 5.5c.6666667.666667 1 1.5 1 2.5s-.3333333 1.666667-1 2l-17 16c-.6666667 1-1 2-1 3s.3333333 1.833333 1 2.5l11.5 12"/>
      <path stroke="#B0B0B0" d="M1302 687l5.5 5.5c.6666667.666667 1 1.5 1 2.5s-.3333333 1.666667-1 2l-17 16c-.6666667 1-1 2-1 3s.3333333 1.833333 1 2.5l11.5 12"/>
      <path stroke="#D6D6D6" d="M1311 427.5l-5.5 5.5c-.6666667.66666667-1 1.5-1 2.5s.3333333 1.6666667 1 2l17 16c.6666667 1 1 2 1 3s-.3333333 1.8333333-1 2.5l-11.5 12"/>
      <path stroke="#D6D6D6" d="M1311 470.75l-5.5 5.5c-.6666667.6666667-1 1.5-1 2.5s.3333333 1.6666667 1 2l17 16c.6666667 1 1 2 1 3s-.3333333 1.8333333-1 2.5l-11.5 12"/>
      <path stroke="#D6D6D6" d="M1311 514l-5.5 5.5c-.6666667.6666667-1 1.5-1 2.5s.3333333 1.6666667 1 2l17 16c.6666667 1 1 2 1 3s-.3333333 1.833333-1 2.5l-11.5 12"/>
      <path stroke="#D6D6D6" d="M1311 557.25l-5.5 5.5c-.6666667.666667-1 1.5-1 2.5s.3333333 1.666667 1 2l17 16c.6666667 1 1 2 1 3s-.3333333 1.833333-1 2.5l-11.5 12"/>
      <path stroke="#D6D6D6" d="M1311 600.5l-5.5 5.5c-.6666667.666667-1 1.5-1 2.5s.3333333 1.666667 1 2l17 16c.6666667 1 1 2 1 3s-.3333333 1.833333-1 2.5l-11.5 12"/>
      <path stroke="#D6D6D6" d="M1311 643.75l-5.5 5.5c-.6666667.666667-1 1.5-1 2.5s.3333333 1.666667 1 2l17 16c.6666667 1 1 2 1 3s-.3333333 1.833333-1 2.5l-11.5 12"/>
      <path stroke="#D6D6D6" d="M1311 687l-5.5 5.5c-.6666667.666667-1 1.5-1 2.5s.3333333 1.666667 1 2l17 16c.6666667 1 1 2 1 3s-.3333333 1.833333-1 2.5l-11.5 12"/>
      <path stroke="#B0B0B0" d="M1272 427.5l5.5 5.5c.666667.66666667 1 1.5 1 2.5s-.333333 1.6666667-1 2l-17 16c-.666667 1-1 2-1 3s.333333 1.8333333 1 2.5l11.5 12"/>
      <path stroke="#B0B0B0" d="M1272 470.75l5.5 5.5c.666667.6666667 1 1.5 1 2.5s-.333333 1.6666667-1 2l-17 16c-.666667 1-1 2-1 3s.333333 1.8333333 1 2.5l11.5 12"/>
      <path stroke="#B0B0B0" d="M1272 514l5.5 5.5c.666667.6666667 1 1.5 1 2.5s-.333333 1.6666667-1 2l-17 16c-.666667 1-1 2-1 3s.333333 1.833333 1 2.5l11.5 12"/>
      <path stroke="#B0B0B0" d="M1272 557.25l5.5 5.5c.666667.666667 1 1.5 1 2.5s-.333333 1.666667-1 2l-17 16c-.666667 1-1 2-1 3s.333333 1.833333 1 2.5l11.5 12"/>
      <path stroke="#B0B0B0" d="M1272 600.5l5.5 5.5c.666667.666667 1 1.5 1 2.5s-.333333 1.666667-1 2l-17 16c-.666667 1-1 2-1 3s.333333 1.833333 1 2.5l11.5 12"/>
      <path stroke="#B0B0B0" d="M1272 643.75l5.5 5.5c.666667.666667 1 1.5 1 2.5s-.333333 1.666667-1 2l-17 16c-.666667 1-1 2-1 3s.333333 1.833333 1 2.5l11.5 12"/>
      <path stroke="#B0B0B0" d="M1272 687l5.5 5.5c.666667.666667 1 1.5 1 2.5s-.333333 1.666667-1 2l-17 16c-.666667 1-1 2-1 3s.333333 1.833333 1 2.5l11.5 12"/>
      <path stroke="#D6D6D6" d="M1281 427.5l-5.5 5.5c-.666667.66666667-1 1.5-1 2.5s.333333 1.6666667 1 2l17 16c.6666667 1 1 2 1 3s-.3333333 1.8333333-1 2.5l-11.5 12"/>
      <path stroke="#D6D6D6" d="M1281 470.75l-5.5 5.5c-.666667.6666667-1 1.5-1 2.5s.333333 1.6666667 1 2l17 16c.6666667 1 1 2 1 3s-.3333333 1.8333333-1 2.5l-11.5 12"/>
      <path stroke="#D6D6D6" d="M1281 514l-5.5 5.5c-.666667.6666667-1 1.5-1 2.5s.333333 1.6666667 1 2l17 16c.6666667 1 1 2 1 3s-.3333333 1.833333-1 2.5l-11.5 12"/>
      <path stroke="#D6D6D6" d="M1281 557.25l-5.5 5.5c-.666667.666667-1 1.5-1 2.5s.333333 1.666667 1 2l17 16c.6666667 1 1 2 1 3s-.3333333 1.833333-1 2.5l-11.5 12"/>
      <path stroke="#D6D6D6" d="M1281 600.5l-5.5 5.5c-.666667.666667-1 1.5-1 2.5s.333333 1.666667 1 2l17 16c.6666667 1 1 2 1 3s-.3333333 1.833333-1 2.5l-11.5 12"/>
      <path stroke="#D6D6D6" d="M1281 643.75l-5.5 5.5c-.666667.666667-1 1.5-1 2.5s.333333 1.666667 1 2l17 16c.6666667 1 1 2 1 3s-.3333333 1.833333-1 2.5l-11.5 12"/>
      <path stroke="#D6D6D6" d="M1281 687l-5.5 5.5c-.666667.666667-1 1.5-1 2.5s.333333 1.666667 1 2l17 16c.6666667 1 1 2 1 3s-.3333333 1.833333-1 2.5l-11.5 12"/>
      <path stroke="#B0B0B0" d="M1242 427.5l5.5 5.5c.666667.66666667 1 1.5 1 2.5s-.333333 1.6666667-1 2l-17 16c-.666667 1-1 2-1 3s.333333 1.8333333 1 2.5l11.5 12"/>
      <path stroke="#B0B0B0" d="M1242 470.75l5.5 5.5c.666667.6666667 1 1.5 1 2.5s-.333333 1.6666667-1 2l-17 16c-.666667 1-1 2-1 3s.333333 1.8333333 1 2.5l11.5 12"/>
      <path stroke="#B0B0B0" d="M1242 514l5.5 5.5c.666667.6666667 1 1.5 1 2.5s-.333333 1.6666667-1 2l-17 16c-.666667 1-1 2-1 3s.333333 1.833333 1 2.5l11.5 12"/>
      <path stroke="#B0B0B0" d="M1242 557.25l5.5 5.5c.666667.666667 1 1.5 1 2.5s-.333333 1.666667-1 2l-17 16c-.666667 1-1 2-1 3s.333333 1.833333 1 2.5l11.5 12"/>
      <path stroke="#B0B0B0" d="M1242 600.5l5.5 5.5c.666667.666667 1 1.5 1 2.5s-.333333 1.666667-1 2l-17 16c-.666667 1-1 2-1 3s.333333 1.833333 1 2.5l11.5 12"/>
      <path stroke="#B0B0B0" d="M1242 643.75l5.5 5.5c.666667.666667 1 1.5 1 2.5s-.333333 1.666667-1 2l-17 16c-.666667 1-1 2-1 3s.333333 1.833333 1 2.5l11.5 12"/>
      <path stroke="#B0B0B0" d="M1242 687l5.5 5.5c.666667.666667 1 1.5 1 2.5s-.333333 1.666667-1 2l-17 16c-.666667 1-1 2-1 3s.333333 1.833333 1 2.5l11.5 12"/>
      <path stroke="#D6D6D6" d="M1251 427.5l-5.5 5.5c-.666667.66666667-1 1.5-1 2.5s.333333 1.6666667 1 2l17 16c.666667 1 1 2 1 3s-.333333 1.8333333-1 2.5l-11.5 12"/>
      <path stroke="#D6D6D6" d="M1251 470.75l-5.5 5.5c-.666667.6666667-1 1.5-1 2.5s.333333 1.6666667 1 2l17 16c.666667 1 1 2 1 3s-.333333 1.8333333-1 2.5l-11.5 12"/>
      <path stroke="#D6D6D6" d="M1251 514l-5.5 5.5c-.666667.6666667-1 1.5-1 2.5s.333333 1.6666667 1 2l17 16c.666667 1 1 2 1 3s-.333333 1.833333-1 2.5l-11.5 12"/>
      <path stroke="#D6D6D6" d="M1251 557.25l-5.5 5.5c-.666667.666667-1 1.5-1 2.5s.333333 1.666667 1 2l17 16c.666667 1 1 2 1 3s-.333333 1.833333-1 2.5l-11.5 12"/>
      <path stroke="#D6D6D6" d="M1251 600.5l-5.5 5.5c-.666667.666667-1 1.5-1 2.5s.333333 1.666667 1 2l17 16c.666667 1 1 2 1 3s-.333333 1.833333-1 2.5l-11.5 12"/>
      <path stroke="#D6D6D6" d="M1251 643.75l-5.5 5.5c-.666667.666667-1 1.5-1 2.5s.333333 1.666667 1 2l17 16c.666667 1 1 2 1 3s-.333333 1.833333-1 2.5l-11.5 12"/>
      <path stroke="#D6D6D6" d="M1251 687l-5.5 5.5c-.666667.666667-1 1.5-1 2.5s.333333 1.666667 1 2l17 16c.666667 1 1 2 1 3s-.333333 1.833333-1 2.5l-11.5 12"/>
      <path stroke="#B0B0B0" d="M1212 427.5l5.5 5.5c.666667.66666667 1 1.5 1 2.5s-.333333 1.6666667-1 2l-17 16c-.666667 1-1 2-1 3s.333333 1.8333333 1 2.5l11.5 12"/>
      <path stroke="#B0B0B0" d="M1212 470.75l5.5 5.5c.666667.6666667 1 1.5 1 2.5s-.333333 1.6666667-1 2l-17 16c-.666667 1-1 2-1 3s.333333 1.8333333 1 2.5l11.5 12"/>
      <path stroke="#B0B0B0" d="M1212 514l5.5 5.5c.666667.6666667 1 1.5 1 2.5s-.333333 1.6666667-1 2l-17 16c-.666667 1-1 2-1 3s.333333 1.833333 1 2.5l11.5 12"/>
      <path stroke="#B0B0B0" d="M1212 557.25l5.5 5.5c.666667.666667 1 1.5 1 2.5s-.333333 1.666667-1 2l-17 16c-.666667 1-1 2-1 3s.333333 1.833333 1 2.5l11.5 12"/>
      <path stroke="#B0B0B0" d="M1212 600.5l5.5 5.5c.666667.666667 1 1.5 1 2.5s-.333333 1.666667-1 2l-17 16c-.666667 1-1 2-1 3s.333333 1.833333 1 2.5l11.5 12"/>
      <path stroke="#B0B0B0" d="M1212 643.75l5.5 5.5c.666667.666667 1 1.5 1 2.5s-.333333 1.666667-1 2l-17 16c-.666667 1-1 2-1 3s.333333 1.833333 1 2.5l11.5 12"/>
      <path stroke="#B0B0B0" d="M1212 687l5.5 5.5c.666667.666667 1 1.5 1 2.5s-.333333 1.666667-1 2l-17 16c-.666667 1-1 2-1 3s.333333 1.833333 1 2.5l11.5 12"/>
      <path stroke="#D6D6D6" d="M1221 427.5l-5.5 5.5c-.666667.66666667-1 1.5-1 2.5s.333333 1.6666667 1 2l17 16c.666667 1 1 2 1 3s-.333333 1.8333333-1 2.5l-11.5 12"/>
      <path stroke="#D6D6D6" d="M1221 470.75l-5.5 5.5c-.666667.6666667-1 1.5-1 2.5s.333333 1.6666667 1 2l17 16c.666667 1 1 2 1 3s-.333333 1.8333333-1 2.5l-11.5 12"/>
      <path stroke="#D6D6D6" d="M1221 514l-5.5 5.5c-.666667.6666667-1 1.5-1 2.5s.333333 1.6666667 1 2l17 16c.666667 1 1 2 1 3s-.333333 1.833333-1 2.5l-11.5 12"/>
      <path stroke="#D6D6D6" d="M1221 557.25l-5.5 5.5c-.666667.666667-1 1.5-1 2.5s.333333 1.666667 1 2l17 16c.666667 1 1 2 1 3s-.333333 1.833333-1 2.5l-11.5 12"/>
      <path stroke="#D6D6D6" d="M1221 600.5l-5.5 5.5c-.666667.666667-1 1.5-1 2.5s.333333 1.666667 1 2l17 16c.666667 1 1 2 1 3s-.333333 1.833333-1 2.5l-11.5 12"/>
      <path stroke="#D6D6D6" d="M1221 643.75l-5.5 5.5c-.666667.666667-1 1.5-1 2.5s.333333 1.666667 1 2l17 16c.666667 1 1 2 1 3s-.333333 1.833333-1 2.5l-11.5 12"/>
      <path stroke="#D6D6D6" d="M1221 687l-5.5 5.5c-.666667.666667-1 1.5-1 2.5s.333333 1.666667 1 2l17 16c.666667 1 1 2 1 3s-.333333 1.833333-1 2.5l-11.5 12"/>
      <path stroke="#B0B0B0" d="M1182 427.5l5.5 5.5c.666667.66666667 1 1.5 1 2.5s-.333333 1.6666667-1 2l-17 16c-.666667 1-1 2-1 3s.333333 1.8333333 1 2.5l11.5 12"/>
      <path stroke="#B0B0B0" d="M1182 470.75l5.5 5.5c.666667.6666667 1 1.5 1 2.5s-.333333 1.6666667-1 2l-17 16c-.666667 1-1 2-1 3s.333333 1.8333333 1 2.5l11.5 12"/>
      <path stroke="#B0B0B0" d="M1182 514l5.5 5.5c.666667.6666667 1 1.5 1 2.5s-.333333 1.6666667-1 2l-17 16c-.666667 1-1 2-1 3s.333333 1.833333 1 2.5l11.5 12"/>
      <path stroke="#B0B0B0" d="M1182 557.25l5.5 5.5c.666667.666667 1 1.5 1 2.5s-.333333 1.666667-1 2l-17 16c-.666667 1-1 2-1 3s.333333 1.833333 1 2.5l11.5 12"/>
      <path stroke="#B0B0B0" d="M1182 600.5l5.5 5.5c.666667.666667 1 1.5 1 2.5s-.333333 1.666667-1 2l-17 16c-.666667 1-1 2-1 3s.333333 1.833333 1 2.5l11.5 12"/>
      <path stroke="#B0B0B0" d="M1182 643.75l5.5 5.5c.666667.666667 1 1.5 1 2.5s-.333333 1.666667-1 2l-17 16c-.666667 1-1 2-1 3s.333333 1.833333 1 2.5l11.5 12"/>
      <path stroke="#B0B0B0" d="M1182 687l5.5 5.5c.666667.666667 1 1.5 1 2.5s-.333333 1.666667-1 2l-17 16c-.666667 1-1 2-1 3s.333333 1.833333 1 2.5l11.5 12"/>
      <path stroke="#D6D6D6" d="M1191 427.5l-5.5 5.5c-.666667.66666667-1 1.5-1 2.5s.333333 1.6666667 1 2l17 16c.666667 1 1 2 1 3s-.333333 1.8333333-1 2.5l-11.5 12"/>
      <path stroke="#D6D6D6" d="M1191 470.75l-5.5 5.5c-.666667.6666667-1 1.5-1 2.5s.333333 1.6666667 1 2l17 16c.666667 1 1 2 1 3s-.333333 1.8333333-1 2.5l-11.5 12"/>
      <path stroke="#D6D6D6" d="M1191 514l-5.5 5.5c-.666667.6666667-1 1.5-1 2.5s.333333 1.6666667 1 2l17 16c.666667 1 1 2 1 3s-.333333 1.833333-1 2.5l-11.5 12"/>
      <path stroke="#D6D6D6" d="M1191 557.25l-5.5 5.5c-.666667.666667-1 1.5-1 2.5s.333333 1.666667 1 2l17 16c.666667 1 1 2 1 3s-.333333 1.833333-1 2.5l-11.5 12"/>
      <path stroke="#D6D6D6" d="M1191 600.5l-5.5 5.5c-.666667.666667-1 1.5-1 2.5s.333333 1.666667 1 2l17 16c.666667 1 1 2 1 3s-.333333 1.833333-1 2.5l-11.5 12"/>
      <path stroke="#D6D6D6" d="M1191 643.75l-5.5 5.5c-.666667.666667-1 1.5-1 2.5s.333333 1.666667 1 2l17 16c.666667 1 1 2 1 3s-.333333 1.833333-1 2.5l-11.5 12"/>
      <path stroke="#D6D6D6" d="M1191 687l-5.5 5.5c-.666667.666667-1 1.5-1 2.5s.333333 1.666667 1 2l17 16c.666667 1 1 2 1 3s-.333333 1.833333-1 2.5l-11.5 12"/>
      <path stroke="#B0B0B0" d="M1152 427.5l5.5 5.5c.666667.66666667 1 1.5 1 2.5s-.333333 1.6666667-1 2l-17 16c-.666667 1-1 2-1 3s.333333 1.8333333 1 2.5l11.5 12M1122 427.5l5.5 5.5c.666667.66666667 1 1.5 1 2.5s-.333333 1.6666667-1 2l-17 16c-.666667 1-1 2-1 3s.333333 1.8333333 1 2.5l11.5 12"/>
      <path stroke="#B0B0B0" d="M1152 470.75l5.5 5.5c.666667.6666667 1 1.5 1 2.5s-.333333 1.6666667-1 2l-17 16c-.666667 1-1 2-1 3s.333333 1.8333333 1 2.5l11.5 12M1122 470.75l5.5 5.5c.666667.6666667 1 1.5 1 2.5s-.333333 1.6666667-1 2c-5.46621 4.7432552-8.632876 6.3265885-9.5 4.75"/>
      <path stroke="#B0B0B0" d="M1152 514l5.5 5.5c.666667.6666667 1 1.5 1 2.5s-.333333 1.6666667-1 2l-17 16c-.666667 1-1 2-1 3s.333333 1.833333 1 2.5l11.5 12"/>
      <path stroke="#B0B0B0" d="M1152 557.25l5.5 5.5c.666667.666667 1 1.5 1 2.5s-.333333 1.666667-1 2l-17 16c-.666667 1-1 2-1 3s.333333 1.833333 1 2.5l11.5 12M1115 560c2.666667-3.333333 6.833333-2.416667 12.5 2.75.666667.666667 1 1.5 1 2.5s-.333333 1.666667-1 2l-17 16c-.666667 1-1 2-1 3s.333333 1.833333 1 2.5l11.5 12"/>
      <path stroke="#B0B0B0" d="M1152 600.5l5.5 5.5c.666667.666667 1 1.5 1 2.5s-.333333 1.666667-1 2l-17 16c-.666667 1-1 2-1 3s.333333 1.833333 1 2.5l11.5 12M1122 600.5l5.5 5.5c.666667.666667 1 1.5 1 2.5s-.333333 1.666667-1 2l-17 16c-.666667 1-1 2-1 3s.333333 1.833333 1 2.5l11.5 12"/>
      <path stroke="#B0B0B0" d="M1152 643.75l5.5 5.5c.666667.666667 1 1.5 1 2.5s-.333333 1.666667-1 2l-17 16c-.666667 1-1 2-1 3s.333333 1.833333 1 2.5l11.5 12M1122 643.75l5.5 5.5c.666667.666667 1 1.5 1 2.5s-.333333 1.666667-1 2c-1.333333 8.166667-4.666667 11.416667-10 9.75"/>
      <path stroke="#B0B0B0" d="M1152 687l5.5 5.5c.666667.666667 1 1.5 1 2.5s-.333333 1.666667-1 2l-17 16c-.666667 1-1 2-1 3s.333333 1.833333 1 2.5l11.5 12"/>
      <path stroke="#D6D6D6" d="M1161 427.5l-5.5 5.5c-.666667.66666667-1 1.5-1 2.5s.333333 1.6666667 1 2l17 16c.666667 1 1 2 1 3s-.333333 1.8333333-1 2.5l-11.5 12"/>
      <path stroke="#D6D6D6" d="M1161 470.75l-5.5 5.5c-.666667.6666667-1 1.5-1 2.5s.333333 1.6666667 1 2l17 16c.666667 1 1 2 1 3s-.333333 1.8333333-1 2.5l-11.5 12"/>
      <path stroke="#D6D6D6" d="M1161 514l-5.5 5.5c-.666667.6666667-1 1.5-1 2.5s.333333 1.6666667 1 2l17 16c.666667 1 1 2 1 3s-.333333 1.833333-1 2.5l-11.5 12"/>
      <path stroke="#D6D6D6" d="M1161 557.25l-5.5 5.5c-.666667.666667-1 1.5-1 2.5s.333333 1.666667 1 2l17 16c.666667 1 1 2 1 3s-.333333 1.833333-1 2.5l-11.5 12"/>
      <path stroke="#D6D6D6" d="M1161 600.5l-5.5 5.5c-.666667.666667-1 1.5-1 2.5s.333333 1.666667 1 2l17 16c.666667 1 1 2 1 3s-.333333 1.833333-1 2.5l-11.5 12"/>
      <path stroke="#D6D6D6" d="M1161 643.75l-5.5 5.5c-.666667.666667-1 1.5-1 2.5s.333333 1.666667 1 2l17 16c.666667 1 1 2 1 3s-.333333 1.833333-1 2.5l-11.5 12"/>
      <path stroke="#D6D6D6" d="M1161 687l-5.5 5.5c-.666667.666667-1 1.5-1 2.5s.333333 1.666667 1 2l17 16c.666667 1 1 2 1 3s-.333333 1.833333-1 2.5l-11.5 12M1131 427.5l-5.5 5.5c-.666667.66666667-1 1.5-1 2.5s.333333 1.6666667 1 2l17 16c.666667 1 1 2 1 3s-.333333 1.8333333-1 2.5l-11.5 12"/>
      <path stroke="#D6D6D6" d="M1131 470.75l-5.5 5.5c-.666667.6666667-1 1.5-1 2.5s.333333 1.6666667 1 2l17 16c.666667 1 1 2 1 3s-.333333 1.8333333-1 2.5c-3.333333 5.5-4.166667 9.5-2.5 12M1133 540c2.833333-2 6-2 9.5 0 .666667 1 1 2 1 3s-.333333 1.833333-1 2.5l-11.5 12"/>
      <path stroke="#D6D6D6" d="M1131 557.25l-5.5 5.5c-.666667.666667-1 1.5-1 2.5s.333333 1.666667 1 2l17 16c.666667 1 1 2 1 3s-.333333 1.833333-1 2.5l-11.5 12"/>
      <path stroke="#D6D6D6" d="M1131 600.5l-5.5 5.5c-.666667.666667-1 1.5-1 2.5s.333333 1.666667 1 2l17 16c.666667 1 1 2 1 3s-.333333 1.833333-1 2.5l-11.5 12"/>
      <path stroke="#D6D6D6" d="M1131 643.75l-5.5 5.5c-.666667.666667-1 1.5-1 2.5s.333333 1.666667 1 2l17 16c.666667 1 1 2 1 3s-.333333 1.833333-1 2.5c-3.666667 3.833333-5.5 7.416667-5.5 10.75"/>
    </g>
  </g>
</svg>
